<svg xmlns="http://www.w3.org/2000/svg" viewBox="0 0 512 512" width="512" height="512">
  <defs>
    <linearGradient id="bgGradient" x1="0%" y1="0%" x2="100%" y2="100%">
      <stop offset="0%" style="stop-color:#4b5563;stop-opacity:1" />
      <stop offset="100%" style="stop-color:#1f2937;stop-opacity:1" />
    </linearGradient>
  </defs>
  
  <!-- Rounded square background -->
  <rect x="0" y="0" width="512" height="512" rx="90" ry="90" fill="url(#bgGradient)"/>
  
  <!-- Document icon -->
  <g transform="translate(120, 80)" fill="none" stroke="white" stroke-width="16" stroke-linecap="round" stroke-linejoin="round">
    <!-- Document outline with folded corner -->
    <path d="M0 32 L0 320 Q0 352 32 352 L240 352 Q272 352 272 320 L272 96 L208 32 L32 32 Q0 32 0 64 Z" fill="rgba(255,255,255,0.1)"/>
    <path d="M0 64 Q0 32 32 32 L208 32 L272 96 L272 320 Q272 352 240 352 L32 352 Q0 352 0 320 Z"/>
    
    <!-- Folded corner -->
    <path d="M208 32 L208 64 Q208 96 240 96 L272 96"/>
    
    <!-- Text lines -->
    <line x1="48" y1="144" x2="224" y2="144"/>
    <line x1="48" y1="192" x2="224" y2="192"/>
    <line x1="48" y1="240" x2="176" y2="240"/>
    <line x1="48" y1="288" x2="192" y2="288"/>
  </g>
</svg>
